<svg width="22" height="16" viewBox="0 0 22 16" fill="none" xmlns="http://www.w3.org/2000/svg">
<path d="M21.222 2.36501C21.098 1.90939 20.8618 1.4944 20.5362 1.16022C20.2106 0.826036 19.8066 0.583991 19.3634 0.457518C17.6995 2.18723e-05 11.0108 2.19829e-05 11.0108 2.19829e-05C11.0108 2.19829e-05 4.33476 -0.0109526 2.65358 0.457518C2.21104 0.584547 1.80785 0.826846 1.48297 1.16099C1.15809 1.49514 0.922511 1.90984 0.799006 2.36501C0.483042 4.11695 0.327425 5.8955 0.334196 7.67731C0.331113 9.45055 0.486706 11.2203 0.799006 12.9642C0.92291 13.4196 1.15856 13.8346 1.48332 14.1694C1.80809 14.5042 2.21107 14.7474 2.65358 14.8758C4.31742 15.3333 11.0108 15.3333 11.0108 15.3333C11.0108 15.3333 17.6829 15.3333 19.3634 14.8758C19.8066 14.748 20.2104 14.505 20.5359 14.1702C20.8614 13.8354 21.0976 13.4201 21.222 12.9642C21.5281 11.2214 21.6774 9.44899 21.6668 7.67731C21.6774 5.89397 21.5314 4.11886 21.222 2.36501ZM8.87416 10.9607V4.3795L14.4419 7.67731L8.87416 10.9607Z" fill="white"/>
</svg>
