<svg width="20" height="20" viewBox="0 0 20 20" fill="none" xmlns="http://www.w3.org/2000/svg">
<path d="M13.07 0H6.93063C1.32813 0 0 1.32812 0 6.93062V13.07C0 18.6725 1.32813 20.0006 6.93063 20.0006H13.07C18.6725 20.0006 20.0006 18.6725 20.0006 13.07V6.93062C20.0006 1.32812 18.6594 0 13.07 0ZM16.1462 14.2675H14.6944C14.1444 14.2675 13.975 13.8312 12.9856 12.8287C12.1262 11.9956 11.7456 11.885 11.5337 11.885C11.2344 11.885 11.1494 11.9694 11.1494 12.38V13.6919C11.1494 14.0437 11.0387 14.255 10.1075 14.255C8.5675 14.255 6.85875 13.3237 5.66063 11.5887C3.85375 9.04625 3.35938 7.14187 3.35938 6.74812C3.35938 6.53625 3.44375 6.33812 3.85062 6.33812H5.30563C5.67375 6.33812 5.81375 6.5075 5.95688 6.90125C6.67625 8.97812 7.87438 10.7975 8.36875 10.7975C8.55125 10.7975 8.63563 10.7131 8.63563 10.2475V8.1025C8.58 7.11312 8.05938 7.02812 8.05938 6.67687C8.05938 6.5075 8.19938 6.33812 8.42375 6.33812H10.7119C11.0212 6.33812 11.135 6.5075 11.135 6.87187V9.76562C11.135 10.0781 11.275 10.1888 11.3594 10.1888C11.5419 10.1888 11.6981 10.0781 12.0362 9.73938C13.0812 8.5675 13.83 6.76063 13.83 6.76063C13.9275 6.54875 14.0969 6.35063 14.465 6.35063H15.92C16.3563 6.35063 16.4538 6.575 16.3563 6.8875C16.1738 7.73375 14.3931 10.2469 14.3931 10.2469C14.24 10.5006 14.1812 10.6112 14.3931 10.8944C14.5494 11.1062 15.0575 11.5456 15.3956 11.9394C16.0175 12.6456 16.4956 13.2381 16.6231 13.6481C16.7663 14.055 16.555 14.2669 16.1444 14.2669L16.1462 14.2675Z" fill="white"/>
</svg>
