<svg width="48" height="48" viewBox="0 0 48 48" fill="none" xmlns="http://www.w3.org/2000/svg">
<path d="M11.3675 9.39033C10.312 4.65132 9.02228 5.36647 8.08496 8.32238C8.51983 9.2107 8.82583 10.1566 8.9937 11.1315C9.75575 10.5155 10.5464 9.9243 11.3675 9.39033Z" fill="white"/>
<path d="M37.7096 6.23486C37.2733 2.36165 35.9112 1.38143 33.3069 7.90543C34.315 8.38072 35.2806 8.94153 36.1931 9.58172C36.7761 8.13236 37.2448 7.01865 37.7096 6.23486Z" fill="white"/>
<path d="M5.75122 30.8058C9.089 37.1811 13.9852 13.6634 21.358 13.6634C27.8164 13.6634 34.6253 39.1148 40.9217 30.1841C37.5839 33.3594 34.8405 28.6528 33.8156 26.9364C37.2067 25.7922 38.525 14.7562 38.7937 11.7812C36.6259 9.55703 34.0001 7.83247 31.0988 6.72752C28.1975 5.62257 25.0906 5.16376 21.9942 5.38303C18.8977 5.6023 15.8862 6.49438 13.1693 7.99718C10.4523 9.49998 8.09512 11.5774 6.26179 14.0849C6.23512 16.8139 5.93983 26.3643 9.59957 27.1577C8.7918 29.0189 7.52489 32.3677 5.75122 30.8058Z" fill="white"/>
<path d="M23.5851 47C35.4902 47 45.1416 37.81 45.1416 26.4554C45.1479 24.0085 44.6908 21.5825 43.7947 19.3059C43.6289 29.9205 40.1749 39.8238 34.3624 40.1194C26.9934 40.5122 18.4146 15.6444 15.0616 23.1886C16.5724 20.5188 20.3121 26.4077 21.7429 29.5029C17.5078 28.4216 15.1149 38.8912 10.5522 38.8912C6.15134 38.8912 3.15458 29.9453 2.93168 20.5093C2.3089 22.438 1.99449 24.4532 2.00007 26.4802C2.02674 37.8042 11.6514 47 23.5851 47Z" fill="white"/>
<path d="M34.2978 39.9397C26.9802 40.3307 18.4605 15.5601 15.1284 23.0738C16.6297 20.404 20.3447 26.2796 21.764 29.3671C17.5594 28.2896 15.1837 38.7116 10.6495 38.7116C7.04501 38.7116 4.39689 32.6415 3.44052 25.2231C2.78516 36.2667 11.9602 45.5922 23.5662 45.5922C36.1286 45.5922 45.5228 34.7735 43.4462 23.0738C42.627 32.0846 39.3502 39.6689 34.2978 39.9397Z" fill="white"/>
<path d="M38.5781 16.469C36.7702 10.7803 30.6261 6.63245 23.3962 6.63245C14.7203 6.63245 7.62939 12.6187 7.62939 19.997C7.65943 22.6196 8.53701 25.162 10.1308 27.2438C13.0495 21.8354 16.6368 13.7362 21.1139 13.7362C25.4785 13.7362 29.4602 21.8831 33.8267 26.9272C34.4269 29.0116 37.8542 20.7675 38.5781 16.469Z" fill="white"/>
<path d="M21.0877 14.0302C24.6826 14.0302 28.5177 21.4219 32.1374 26.7273C28.6529 21.3247 24.675 12.7354 21.0877 12.7354C16.0829 12.7354 13.1509 21.4868 10.4399 26.817C13.2614 21.5612 16.7745 14.0302 21.0877 14.0302Z" fill="white"/>
<path d="M9.40156 27.2865C6.71534 25.9363 7.706 12.6633 10.9104 9.448C9.6183 10.4675 8.46876 11.656 7.49263 12.9818C6.81059 18.6991 7.04492 26.1327 9.40156 27.2865Z" fill="white"/>
<path d="M33.707 27.4889C36.5495 26.3275 37.7649 17.2805 37.9269 10.8652C36.6432 9.75157 35.2256 8.80278 33.707 8.04089C37.3096 11.0636 35.776 25.929 33.707 27.4889Z" fill="white"/>
<path d="M9.54852 27.2862C6.95755 26.142 6.66607 18.7236 7.35382 13.0006C8.09682 7.00672 9.86477 2.84746 11.1869 9.47634C11.3922 9.31503 11.6137 9.17569 11.848 9.06061C9.73332 0.107037 6.40316 6.72066 6.24313 14.3946C6.19169 17.1102 5.95355 26.5272 9.54852 27.2862Z" fill="white"/>
<path d="M37.8641 10.7884C37.6927 17.2342 36.2696 25.7187 34.0749 27.2862C37.7498 26.142 39.1463 15.1193 39.4092 12.0833C40.1141 2.42793 37.4088 -4.78833 32.4822 7.4835L33.4519 7.90687C36.7535 -0.608086 38.007 3.94593 37.8641 10.7884Z" fill="white"/>
</svg>
