<svg width="82" height="48" viewBox="0 0 82 48" fill="none" xmlns="http://www.w3.org/2000/svg">
<path d="M57.8216 39.9111H45.5133C45.6823 41.3178 46.2406 42.4344 47.1625 43.2608C48.0844 44.0873 49.1974 44.4987 50.5307 44.4987C51.5003 44.4987 52.3966 44.304 53.2193 43.8926C54.0421 43.4812 54.7473 42.8715 55.3019 42.0487L57.8473 43.1911C57.0466 44.4546 56.0071 45.3985 54.6959 46.0303C53.3883 46.6621 51.9815 47 50.4572 47C48.8815 47 47.4527 46.6584 46.2406 46.0046C45.0285 45.3508 44.0588 44.4252 43.3573 43.2388C42.6778 42.0487 42.3398 40.7154 42.3398 39.2352C42.3398 37.755 42.6778 36.418 43.3573 35.2537C44.0368 34.0636 44.955 33.1417 46.1451 32.4622C47.3094 31.8084 48.617 31.4668 50.0238 31.4668C51.5738 31.4668 52.9328 31.8084 54.0714 32.4879C55.2358 33.1674 56.132 34.1628 56.7858 35.4263C57.4102 36.6604 57.7738 38.1884 57.8216 39.9111ZM50.0422 33.8432C48.9513 33.8432 48.0073 34.2069 47.1845 34.9341C46.3618 35.6614 45.8292 36.6347 45.6088 37.8468H54.8171C54.5489 36.6347 53.9686 35.6614 53.0981 34.9341C52.2239 34.2069 51.1808 33.8432 50.0422 33.8432Z" fill="white"/>
<path d="M80.1388 31.8062H77.4502V26.9285L74.5669 29.573V42.7298C74.5669 44.21 74.835 45.2531 75.3676 45.8849C75.9002 46.4909 76.7744 46.8068 77.9828 46.8068C78.5411 46.8068 79.2683 46.6856 80.1388 46.4175V43.7949C79.6283 43.9639 79.1214 44.0631 78.6109 44.0631C78.1995 44.0631 77.8836 43.9419 77.7147 43.6994C77.5457 43.457 77.4465 42.9465 77.4465 42.1458V34.4288H80.1352V31.8062H80.1388Z" fill="white"/>
<path d="M46.5515 8.23625C45.8499 7.53103 44.9023 7.19312 43.7159 7.19312C42.0447 7.19312 40.2743 7.96812 38.3863 9.49977C37.7546 7.97179 36.5939 7.19312 34.897 7.19312C33.2478 7.19312 31.5545 7.87262 29.8099 9.25735V7.38778H24.4546V9.9846H26.9265V19.5491H24.2856V22.1239H29.8099V11.6632C31.5288 10.3997 32.9356 9.77157 34.0008 9.77157C34.6546 9.77157 35.1137 9.96624 35.4075 10.3776C35.6977 10.789 35.8446 11.4685 35.8446 12.4161V22.1019H38.7279V11.6632C39.5029 11.0314 40.2559 10.5466 40.9575 10.2307C41.659 9.91482 42.2908 9.74586 42.8233 9.74586C43.4294 9.74586 43.8665 9.89278 44.1309 10.1572C44.3991 10.4474 44.568 10.789 44.6415 11.1783C44.7149 11.5897 44.737 12.1003 44.737 12.7577V22.0798H47.5946V11.4722C47.5946 10.0066 47.2567 8.94147 46.5515 8.23625Z" fill="white"/>
<path d="M56.5134 7.38733H51.3271V9.96211H53.6044V19.5266H51.3271V22.0977H56.5134V7.38733Z" fill="white"/>
<path d="M71.1735 7.19312C69.55 7.19312 68.3159 7.46125 67.4417 7.96812C66.5675 8.47867 65.8439 9.4006 65.2599 10.7119V7.38778H60.0259V9.9846H62.9827V19.5491H60.0259V22.1239H65.8403V16.2251C65.8403 14.6457 65.9615 13.4593 66.2039 12.6328C66.4463 11.8064 66.9569 11.1747 67.7319 10.7633C68.5069 10.3519 69.6712 10.1572 71.2212 10.1572H71.853V7.19679H71.1735V7.19312Z" fill="white"/>
<path d="M24.7952 36.6359C24.7952 34.9133 24.4793 33.6498 23.8512 32.8491C23.2194 32.0483 22.2534 31.637 20.9422 31.637C19.3665 31.637 17.6695 32.2908 15.855 33.602V31.8316H10.4043V34.4284H12.9974V43.993H10.4043V46.5641H15.855V36.1768C17.4528 34.9133 18.9073 34.2852 20.1929 34.2852C20.7989 34.2852 21.236 34.4799 21.5005 34.8913C21.7649 35.3026 21.8898 35.9601 21.8898 36.882V46.6155H24.7988V36.6359H24.7952Z" fill="white"/>
<path d="M14.8583 22.0941H21.7635L15.1007 3.54907L14.1788 1H6.67113V3.54907H9.19082L3.51969 19.4716H1V22.1162H5.79696L7.97873 15.7067L8.31664 14.6856H15.9749L17.6241 19.4679H14.8583V22.0941ZM9.16511 12.1917L12.1439 3.52704H12.2394L15.1521 12.1917H9.16511Z" fill="white"/>
<path d="M6.47646 25.4218H1V28.0663H3.27727V43.9154H1V46.5379H6.47646V25.4218Z" fill="white"/>
<path d="M41.8773 31.8279H36.085V34.4027H38.1198L34.9684 42.7514L31.7949 34.4027L30.7995 31.8279H26.2192V34.4027H28.8124L33.5873 46.8064H36.2025L39.6919 37.6055L41.8773 31.8279Z" fill="white"/>
<path d="M56.5127 1.89954H53.6294V4.78652H56.5127V1.89954Z" fill="white"/>
<path d="M72.0228 28.0665H10.4043V25.422H70.8841L71.4902 24.7682H68.6069V22.0979H77.6204L72.0228 28.0665Z" fill="white"/>
<path d="M67.8526 38.0201L65.9132 37.6307C64.6277 37.4361 63.8049 37.1936 63.4413 36.9255C63.0777 36.6574 62.883 36.2717 62.883 35.8089C62.883 35.2763 63.1254 34.8392 63.6102 34.4977C64.0951 34.1561 64.7232 33.9871 65.4761 33.9871C66.9306 33.9871 68.0693 34.5932 68.9177 35.7832L71.4374 33.4545V31.7796H68.9177V32.4114C67.9481 31.8531 66.7617 31.585 65.3549 31.585C64.5065 31.585 63.7057 31.7539 62.9087 32.0698C62.108 32.3857 61.4542 32.8962 60.9473 33.5243C60.4368 34.1781 60.1943 34.9568 60.1943 35.8787C60.1943 37.021 60.5323 37.9429 61.2375 38.6702C61.939 39.3975 63.0079 39.908 64.4844 40.1982L65.9867 40.5141C67.2722 40.7565 68.1427 40.9989 68.5798 41.2413C69.0169 41.4837 69.2336 41.8474 69.2336 42.3102C69.2336 42.964 68.9655 43.4525 68.4329 43.7904C67.9003 44.132 67.1474 44.2752 66.2034 44.2752C65.3549 44.2752 64.6056 44.0585 63.9482 43.6214C63.2944 43.1843 62.905 42.626 62.7618 41.9208L60.1943 44.3009V46.4607H62.7618V45.6599C63.1989 45.9501 63.7572 46.2182 64.433 46.4129C65.1125 46.6076 65.7883 46.7031 66.4678 46.7031C68.2125 46.7031 69.5936 46.2917 70.6367 45.4653C71.6799 44.6388 72.2124 43.548 72.2124 42.211C72.2161 39.9851 70.7616 38.5527 67.8526 38.0201Z" fill="white"/>
</svg>
