<svg width="48" height="48" viewBox="0 0 48 48" fill="none" xmlns="http://www.w3.org/2000/svg">
<rect width="48" height="48" fill="white"/>
<path d="M32.3873 39.3926H7.42573V43.6077H20.6604C20.9099 44.0165 21.3611 44.2872 21.8761 44.2872C22.6671 44.2872 23.3094 43.6449 23.3094 42.8539C23.3094 42.0629 22.6671 41.4205 21.8761 41.4205C21.3611 41.4205 20.9099 41.6913 20.6604 42.1001H8.9281V40.8897H32.3873C35.769 40.8897 38.8958 38.9148 40.3504 35.8623L38.9967 35.2147C37.7916 37.7522 35.1956 39.3926 32.3873 39.3926ZM30.954 26.6835C30.954 27.4745 31.5963 28.1169 32.3873 28.1169C32.8226 28.1169 33.2102 27.9205 33.4703 27.6179C35.4557 28.1275 36.9528 29.89 36.99 31.987C37.0112 33.2292 36.544 34.4077 35.6734 35.2996C34.7975 36.1915 33.6349 36.6799 32.3873 36.6799H13.1963C12.9415 36.2711 12.4902 36.0003 11.9753 36.0003C11.1843 36.0003 10.5419 36.6427 10.5419 37.4337C10.5419 38.2247 11.1843 38.8671 11.9753 38.8671C12.4902 38.8671 12.9415 38.591 13.1963 38.1875H32.3873C34.0383 38.1875 35.5831 37.5399 36.7458 36.356C37.9031 35.1775 38.5242 33.6167 38.4923 31.9657C38.4392 29.1415 36.3954 26.7685 33.7092 26.1421C33.4915 25.6218 32.9819 25.2608 32.3873 25.2608C31.5963 25.2502 30.954 25.8926 30.954 26.6835ZM20.4958 23.2541V24.7565H32.3873C36.0291 24.7565 39.0604 27.4321 39.6125 30.9199C39.2568 31.18 39.0232 31.5994 39.0232 32.0772C39.0232 32.8682 39.6656 33.5106 40.4566 33.5106C41.2476 33.5106 41.8899 32.8682 41.8899 32.0772C41.8899 31.5251 41.5767 31.042 41.1148 30.8031C40.4937 26.5402 36.8201 23.2541 32.3873 23.2541H20.4958ZM11.1471 19.2885C11.6833 20.1061 12.4212 20.7856 13.2706 21.2634C14.1731 21.773 15.203 22.0384 16.2435 22.0384H32.244C37.7969 22.0384 42.3624 26.4924 42.4155 31.971C42.442 34.6679 41.4121 37.2054 39.5063 39.1272C37.6058 41.0436 35.0735 42.1054 32.382 42.1054H25.8204V43.6077H32.382C35.477 43.6077 38.3862 42.392 40.5733 40.1836C42.7552 37.9752 43.9444 35.0554 43.9125 31.9604C43.8541 25.6643 38.6144 20.5414 32.244 20.5414H16.2435C15.4578 20.5414 14.6827 20.3396 14.0032 19.9574C13.3609 19.5964 12.8035 19.0815 12.4 18.4657L11.1471 19.2885ZM16.2488 12.5411C15.3198 12.5411 14.4492 12.9128 13.8068 13.5816C13.1591 14.2505 12.8247 15.1318 12.8619 16.0608C12.9309 17.8923 14.4492 19.3204 16.3178 19.3204H32.3926C35.8061 19.3204 39.0126 20.6582 41.428 23.0842C43.8435 25.5103 45.1601 28.7274 45.1388 32.1409C45.0964 39.1272 39.3152 44.8128 32.244 44.8128H10.0748C9.82527 44.404 9.37403 44.1333 8.85909 44.1333C8.06809 44.1333 7.42573 44.7757 7.42573 45.5666C7.42573 46.3576 8.06809 47 8.85909 47C9.37403 47 9.82527 46.7293 10.0748 46.3205H32.244C40.138 46.3205 46.5934 39.966 46.6412 32.1568C46.6624 28.3399 45.1919 24.7459 42.4951 22.0331C39.7983 19.3204 36.2096 17.8286 32.3979 17.8286H16.3125C15.272 17.8286 14.3961 17.0111 14.3589 16.013C14.3377 15.4928 14.5288 15.0044 14.8898 14.6275C15.2508 14.2559 15.7339 14.0488 16.2541 14.0488H21.0851V12.5465H16.2488V12.5411ZM16.3391 9.82839C13.3927 9.82839 10.8923 11.8988 10.2871 14.6381C9.79873 14.8664 9.46428 15.3601 9.46428 15.9334C9.46428 16.7244 10.1066 17.3668 10.8976 17.3668C11.6886 17.3668 12.331 16.7244 12.331 15.9334C12.331 15.4822 12.1186 15.0787 11.7895 14.8133C12.3044 12.8172 14.1625 11.3254 16.3444 11.3254H39.7133V12.5411H25.5231C25.2683 12.1483 24.8277 11.8935 24.3287 11.8935C23.5377 11.8935 22.8953 12.5358 22.8953 13.3268C22.8953 14.1178 23.5377 14.7602 24.3287 14.7602C24.8596 14.7602 25.3214 14.4735 25.5656 14.0435H41.2157V9.82839H16.3391ZM23.2988 4.40288V5.90525H39.708V7.12095H16.2488C11.386 7.12095 7.42573 11.0759 7.42573 15.9387C7.42573 20.3715 10.7118 24.0451 14.9747 24.6662C15.2136 25.1228 15.6914 25.4413 16.2488 25.4413C17.0398 25.4413 17.6822 24.799 17.6822 24.008C17.6822 23.217 17.0398 22.5746 16.2488 22.5746C15.771 22.5746 15.3516 22.8082 15.0915 23.1639C11.6037 22.6065 8.9281 19.5805 8.9281 15.9387C8.9281 11.9041 12.2089 8.62331 16.2488 8.62331H41.2051V4.40819H23.2988V4.40288ZM18.7068 4.40288H16.3868C10.0111 4.40288 4.77669 9.52579 4.71829 15.8219C4.68644 18.9222 5.87559 21.842 8.05747 24.0504C10.2447 26.2589 13.1538 27.4692 16.2488 27.4692H28.4642V25.9669H16.2488C13.552 25.9669 11.025 24.9104 9.12452 22.9887C7.224 21.0669 6.19411 18.5294 6.21535 15.8325C6.26843 10.354 10.8286 5.89994 16.3868 5.89994H18.6643C18.9138 6.32995 19.3756 6.61662 19.9065 6.61662C20.6975 6.61662 21.3399 5.97426 21.3399 5.18326C21.3399 4.39227 20.6975 3.74991 19.9065 3.74991C19.4022 3.75522 18.9616 4.01535 18.7068 4.40288ZM38.5985 1.69013H16.2488C12.4319 1.69013 8.84847 3.18188 6.14634 5.89463C3.44951 8.60738 1.97899 12.2014 2.00023 16.0183C2.0427 23.8275 8.5034 30.182 16.3975 30.182H32.3873C32.9023 30.182 33.3907 30.389 33.7463 30.7606C34.1073 31.1376 34.2931 31.626 34.2719 32.1462C34.2347 33.1496 33.3588 33.9618 32.3183 33.9618H7.42573V37.4284H8.9281V35.4642H32.3183C34.187 35.4642 35.7053 34.0308 35.7743 32.2046C35.8114 31.2756 35.4717 30.3943 34.8293 29.7201C34.1816 29.0512 33.3163 28.6796 32.3873 28.6796H16.3975C9.32625 28.6796 3.54506 22.994 3.50259 16.0077C3.48136 12.5942 4.79792 9.37715 7.21339 6.95107C9.62885 4.52499 12.8353 3.18719 16.2488 3.18719H38.5985C38.8533 3.59596 39.3046 3.8667 39.8195 3.8667C40.6105 3.8667 41.2529 3.22435 41.2529 2.43335C41.2529 1.64235 40.6105 1 39.8195 1C39.3046 1.00531 38.8533 1.28136 38.5985 1.69013Z" fill="white"/>
</svg>
