<svg width="18" height="18" viewBox="0 0 18 18" fill="none" xmlns="http://www.w3.org/2000/svg">
<path d="M17.4333 5.4H14.0333V3.7C14.0328 3.24928 13.8536 2.81717 13.5349 2.49847C13.2162 2.17976 12.784 2.00049 12.3333 2H6.66667C6.21595 2.00049 5.78384 2.17976 5.46513 2.49847C5.14643 2.81717 4.96716 3.24928 4.96667 3.7V5.4H1.56667C1.41638 5.4 1.27224 5.4597 1.16597 5.56597C1.0597 5.67224 1 5.81638 1 5.96667V6.53333C1.00166 8.03572 1.59922 9.47609 2.66157 10.5384C3.72391 11.6008 5.16428 12.1983 6.66667 12.2H12.3333C13.8357 12.1983 15.276 11.6007 16.3384 10.5384C17.4007 9.47605 17.9983 8.0357 18 6.53333V5.96667C18 5.81638 17.9403 5.67224 17.834 5.56597C17.7278 5.4597 17.5836 5.4 17.4333 5.4ZM6.1 5.4V3.7C6.10019 3.54977 6.15996 3.40575 6.26619 3.29952C6.37242 3.19329 6.51644 3.13353 6.66667 3.13333H12.3333C12.4836 3.13347 12.6276 3.19321 12.7339 3.29946C12.8401 3.4057 12.8999 3.54975 12.9 3.7V5.4H6.1Z" fill="white"/>
<path d="M12.3333 13.3333H6.66667C5.54373 13.3327 4.43846 13.0538 3.44961 12.5217C2.46076 11.9896 1.61916 11.2207 1 10.2839V15.0333C1.00049 15.484 1.17976 15.9162 1.49847 16.2349C1.81717 16.5536 2.24928 16.7328 2.7 16.7333H16.3C16.7507 16.7328 17.1828 16.5536 17.5015 16.2349C17.8202 15.9162 17.9995 15.484 18 15.0333V10.284C17.3808 11.2209 16.5392 11.9897 15.5504 12.5218C14.5615 13.0539 13.4563 13.3327 12.3333 13.3333Z" fill="white"/>
</svg>
