<svg width="18" height="18" viewBox="0 0 18 18" fill="none" xmlns="http://www.w3.org/2000/svg">
<path fill-rule="evenodd" clip-rule="evenodd" d="M6.7673 1C6.048 1 5.46484 1.58316 5.46484 2.30232V5.39366C5.46484 6.11282 6.048 6.69598 6.7673 6.69598H11.2325C11.9516 6.69598 12.5348 6.11282 12.5348 5.39366V2.30232C12.5348 1.58316 11.9516 1 11.2325 1H6.7673Z" fill="white"/>
<path fill-rule="evenodd" clip-rule="evenodd" d="M1 14.1324C1 13.4132 1.58316 12.8301 2.30232 12.8301H4.53494C5.25424 12.8301 5.83727 13.4132 5.83727 14.1324V15.6972C5.83727 16.4164 5.25424 16.9995 4.53494 16.9995H2.30232C1.58316 16.9995 1 16.4164 1 15.6972V14.1324ZM2.30232 13.9465C2.19962 13.9465 2.11639 14.0297 2.11639 14.1324V15.6972C2.11639 15.7999 2.19962 15.8833 2.30232 15.8833H4.53494C4.63764 15.8833 4.72101 15.7999 4.72101 15.6972V14.1324C4.72101 14.0297 4.63764 13.9465 4.53494 13.9465H2.30232Z" fill="white"/>
<path fill-rule="evenodd" clip-rule="evenodd" d="M6.58203 14.1324C6.58203 13.4132 7.16506 12.8301 7.88435 12.8301H10.117C10.8361 12.8301 11.4193 13.4132 11.4193 14.1324V15.6972C11.4193 16.4164 10.8361 16.9995 10.117 16.9995H7.88435C7.16506 16.9995 6.58203 16.4164 6.58203 15.6972V14.1324ZM7.88435 13.9465C7.78152 13.9465 7.69829 14.0297 7.69829 14.1324V15.6972C7.69829 15.7999 7.78152 15.8833 7.88435 15.8833H10.117C10.2197 15.8833 10.3029 15.7999 10.3029 15.6972V14.1324C10.3029 14.0297 10.2197 13.9465 10.117 13.9465H7.88435Z" fill="white"/>
<path fill-rule="evenodd" clip-rule="evenodd" d="M12.1621 14.1324C12.1621 13.4132 12.7451 12.8301 13.4644 12.8301H15.6971C16.4162 12.8301 16.9994 13.4132 16.9994 14.1324V15.6972C16.9994 16.4164 16.4162 16.9995 15.6971 16.9995H13.4644C12.7451 16.9995 12.1621 16.4164 12.1621 15.6972V14.1324ZM13.4644 13.9465C13.3617 13.9465 13.2784 14.0297 13.2784 14.1324V15.6972C13.2784 15.7999 13.3617 15.8833 13.4644 15.8833H15.6971C15.7998 15.8833 15.883 15.7999 15.883 15.6972V14.1324C15.883 14.0297 15.7998 13.9465 15.6971 13.9465H13.4644Z" fill="white"/>
<path fill-rule="evenodd" clip-rule="evenodd" d="M8.99961 5.96094C9.30784 5.96094 9.55782 6.2109 9.55782 6.51914V9.95374C9.55782 10.262 9.30786 10.5118 8.99961 10.5118C8.69136 10.5118 8.44141 10.262 8.44141 9.95374V6.51914C8.44141 6.21091 8.69136 5.96094 8.99961 5.96094Z" fill="white"/>
<path fill-rule="evenodd" clip-rule="evenodd" d="M3.41953 9.39648C3.72776 9.39648 3.97761 9.64644 3.97761 9.95469V13.3893C3.97761 13.6975 3.72778 13.9474 3.41953 13.9474C3.11129 13.9474 2.86133 13.6975 2.86133 13.3893V9.95469C2.86133 9.64646 3.11129 9.39648 3.41953 9.39648Z" fill="white"/>
<path fill-rule="evenodd" clip-rule="evenodd" d="M8.99961 9.39648C9.30784 9.39648 9.55782 9.64644 9.55782 9.95469V13.3893C9.55782 13.6975 9.30786 13.9474 8.99961 13.9474C8.69136 13.9474 8.44141 13.6975 8.44141 13.3893V9.95469C8.44141 9.64646 8.69136 9.39648 8.99961 9.39648Z" fill="white"/>
<path fill-rule="evenodd" clip-rule="evenodd" d="M14.5817 9.39648C14.8898 9.39648 15.1398 9.64644 15.1398 9.95469V13.3893C15.1398 13.6975 14.8899 13.9474 14.5817 13.9474C14.2734 13.9474 14.0234 13.6975 14.0234 13.3893V9.95469C14.0234 9.64646 14.2734 9.39648 14.5817 9.39648Z" fill="white"/>
<path fill-rule="evenodd" clip-rule="evenodd" d="M2.86133 9.95371C2.86133 9.64548 3.11129 9.39551 3.41953 9.39551H14.5823C14.8904 9.39551 15.1404 9.64547 15.1404 9.95371C15.1404 10.2619 14.8904 10.5118 14.5823 10.5118H3.41953C3.1113 10.5118 2.86133 10.262 2.86133 9.95371Z" fill="white"/>
</svg>
