<svg width="14" height="18" viewBox="0 0 14 18" fill="none" xmlns="http://www.w3.org/2000/svg">
<path d="M12.625 0.5625H1.375C1.07674 0.562842 0.790787 0.681479 0.579883 0.892383C0.368979 1.10329 0.250342 1.38924 0.25 1.6875V16.3125C0.250342 16.6108 0.368979 16.8967 0.579883 17.1076C0.790787 17.3185 1.07674 17.4372 1.375 17.4375H12.625C12.9233 17.4372 13.2092 17.3185 13.4201 17.1076C13.631 16.8967 13.7497 16.6108 13.75 16.3125V1.6875C13.7497 1.38924 13.631 1.10329 13.4201 0.892383C13.2092 0.681479 12.9233 0.562842 12.625 0.5625ZM10.375 14.625H3.625C3.47582 14.625 3.33274 14.5657 3.22725 14.4602C3.12176 14.3548 3.0625 14.2117 3.0625 14.0625C3.0625 13.9133 3.12176 13.7702 3.22725 13.6648C3.33274 13.5593 3.47582 13.5 3.625 13.5H10.375C10.5242 13.5 10.6673 13.5593 10.7727 13.6648C10.8782 13.7702 10.9375 13.9133 10.9375 14.0625C10.9375 14.2117 10.8782 14.3548 10.7727 14.4602C10.6673 14.5657 10.5242 14.625 10.375 14.625ZM10.375 11.8125H3.625C3.47582 11.8125 3.33274 11.7532 3.22725 11.6477C3.12176 11.5423 3.0625 11.3992 3.0625 11.25C3.0625 11.1008 3.12176 10.9577 3.22725 10.8523C3.33274 10.7468 3.47582 10.6875 3.625 10.6875H10.375C10.5242 10.6875 10.6673 10.7468 10.7727 10.8523C10.8782 10.9577 10.9375 11.1008 10.9375 11.25C10.9375 11.3992 10.8782 11.5423 10.7727 11.6477C10.6673 11.7532 10.5242 11.8125 10.375 11.8125ZM10.9375 7.3125C10.9375 7.46168 10.8782 7.60476 10.7727 7.71025C10.6673 7.81574 10.5242 7.875 10.375 7.875H3.625C3.47582 7.875 3.33274 7.81574 3.22725 7.71025C3.12176 7.60476 3.0625 7.46168 3.0625 7.3125V3.9375C3.0625 3.78832 3.12176 3.64524 3.22725 3.53975C3.33274 3.43426 3.47582 3.375 3.625 3.375H10.375C10.5242 3.375 10.6673 3.43426 10.7727 3.53975C10.8782 3.64524 10.9375 3.78832 10.9375 3.9375V7.3125Z" fill="white"/>
</svg>
