<svg width="18" height="18" viewBox="0 0 18 18" fill="none" xmlns="http://www.w3.org/2000/svg">
<path d="M8.99955 1.21191C8.99955 1.21191 3.64628 5.83307 0.654646 8.33576C0.55945 8.4187 0.482754 8.52073 0.429531 8.63523C0.376309 8.74973 0.347749 8.87413 0.345703 9.00038C0.345703 9.22989 0.436877 9.45 0.599168 9.61229C0.761459 9.77459 0.981573 9.86576 1.21109 9.86576H2.94186V15.9235C2.94186 16.153 3.03303 16.3731 3.19532 16.5354C3.35761 16.6977 3.57773 16.7888 3.80724 16.7888H6.4034C6.63291 16.7888 6.85302 16.6977 7.01531 16.5354C7.17761 16.3731 7.26878 16.153 7.26878 15.9235V12.4619H10.7303V15.9235C10.7303 16.153 10.8215 16.3731 10.9838 16.5354C11.1461 16.6977 11.3662 16.7888 11.5957 16.7888H14.1919C14.4214 16.7888 14.6415 16.6977 14.8038 16.5354C14.9661 16.3731 15.0572 16.153 15.0572 15.9235V9.86576H16.788C17.0175 9.86576 17.2376 9.77459 17.3999 9.61229C17.5622 9.45 17.6534 9.22989 17.6534 9.00038C17.6522 8.87171 17.6217 8.745 17.5643 8.62986C17.5069 8.51471 17.424 8.41414 17.322 8.33576C14.3511 5.83307 8.99955 1.21191 8.99955 1.21191Z" fill="white"/>
</svg>
