<svg width="44" height="69" viewBox="0 0 44 69" fill="none" xmlns="http://www.w3.org/2000/svg">
<circle cx="22" cy="22" r="21.5" stroke="white"/>
<circle cx="22" cy="22" r="6" fill="white"/>
<path d="M13.2929 60.7071C12.9024 60.3166 12.9024 59.6834 13.2929 59.2929C13.6834 58.9024 14.3166 58.9024 14.7071 59.2929L13.2929 60.7071ZM22 68L22.7071 68.7071C22.3166 69.0976 21.6834 69.0976 21.2929 68.7071L22 68ZM29.2929 59.2929C29.6834 58.9024 30.3166 58.9024 30.7071 59.2929C31.0976 59.6834 31.0976 60.3166 30.7071 60.7071L29.2929 59.2929ZM14.7071 59.2929L22.7071 67.2929L21.2929 68.7071L13.2929 60.7071L14.7071 59.2929ZM21.2929 67.2929L29.2929 59.2929L30.7071 60.7071L22.7071 68.7071L21.2929 67.2929Z" fill="white"/>
</svg>
