<svg width="282" height="40" viewBox="0 0 282 40" fill="none" xmlns="http://www.w3.org/2000/svg">
<path fill-rule="evenodd" clip-rule="evenodd" d="M24.9691 39.3782V38.0656C22.5682 37.7893 22.0881 37.2366 20.8533 33.9896C18.4524 27.772 16.1202 21.4162 13.7193 15.0605L11.7986 15.544L4.18438 34.1969C2.94965 37.3748 2.53807 37.7893 0 38.1347V39.3782H8.30017V38.0656C5.62491 37.7202 5.48772 37.1675 6.10508 35.5095C6.51666 34.0587 7.06543 32.677 7.47701 31.4335H14.6796C15.297 33.0225 15.8458 34.6114 16.2574 35.6477C16.8061 37.2366 16.6689 37.6511 14.4739 37.9965V39.3782H24.9691ZM13.9251 29.5682H8.09438C9.05473 26.943 10.0151 24.3178 11.044 21.6926H11.1126L13.9251 29.5682ZM63.2459 39.3782V38.0656C60.2963 37.7893 60.1591 37.4439 60.0905 34.0587L59.6789 20.6563C59.6103 17.5475 59.7475 17.2021 62.7658 16.9257V15.6131H55.2887L47.8803 31.7098L40.6091 15.6131H32.9263V16.9257C36.1503 17.2021 36.4247 17.7548 36.0817 21.9689L35.533 28.9465C35.2586 32.9534 34.9842 34.7496 34.7098 35.924C34.504 37.2366 33.7495 37.8584 31.623 38.0656V39.3782H40.6091V38.0656C38.071 37.8584 37.4537 37.513 37.2479 35.924C37.1107 34.7496 37.1107 33.0225 37.2479 30.0518L37.728 20.4491H37.8652L45.548 39.171H46.5084L54.8772 20.1727H55.083L55.1515 34.0587C55.2201 37.4439 54.9458 37.7893 52.2019 38.0656V39.3782H63.2459ZM86.2257 39.3782V38.0656C83.4133 37.7893 83.1389 37.582 83.1389 34.4732V20.5181C83.1389 17.4093 83.4819 17.133 86.2257 16.9257V15.6131H75.0445V16.9257C77.7884 17.2021 78.2 17.4093 78.2 20.5181V34.4732C78.2 37.6511 77.857 37.8584 75.0445 38.0656V39.3782H86.2257ZM121.004 38.4801C120.112 38.2038 119.564 37.7893 118.809 36.9603C118.123 36.2003 117.3 34.9568 115.928 32.9534C114.83 31.2953 113.459 28.8774 112.91 27.8411C115.379 26.8739 117.506 25.1468 117.506 21.8998C117.506 19.62 116.477 18.0311 115.036 16.9948C113.527 15.9586 111.606 15.6131 108.314 15.6131H98.0243V16.9257C100.7 17.133 101.111 17.5475 101.111 20.5181V34.4732C101.111 37.4439 100.631 37.7893 97.8871 38.0656V39.3782H109.068V38.0656C106.256 37.7893 105.913 37.4439 105.913 34.4732V29.2228H106.599C107.765 29.2228 108.451 29.6373 109.068 30.7427C110.166 32.677 111.126 34.6114 112.087 36.1313C113.596 38.411 115.036 39.4473 119.701 39.6546C120.112 39.6546 120.524 39.6546 120.661 39.6546L121.004 38.4801ZM105.913 27.772V18.791C105.913 18.1002 105.982 17.6857 106.256 17.4093C106.53 17.2021 107.01 16.9948 107.971 16.9948C110.097 16.9948 112.361 18.4456 112.361 22.3143C112.361 24.1796 111.812 25.5613 110.577 26.6667C109.754 27.3575 108.451 27.6339 106.805 27.6339H105.913V27.772ZM148.443 32.677C146.453 36.4767 144.396 38.5492 140.554 38.5492C134.723 38.5492 130.539 33.9206 130.539 27.0812C130.539 21.6235 133.9 16.5112 140.211 16.5112C144.258 16.5112 146.728 18.1002 147.757 22.1762L148.854 21.8998C148.648 19.8273 148.374 18.2383 148.031 16.1658C147.002 16.0276 144.327 15.1295 141.103 15.1295C132.528 15.1295 126.355 20.1727 126.355 27.8411C126.355 33.5751 130.608 40 140.211 40C142.955 40 146.248 39.2401 147.345 38.9637C147.963 37.7893 148.991 34.8877 149.472 33.1606L148.443 32.677ZM174.441 39.3782V38.342C172.04 38.0656 171.491 37.7202 170.325 34.4732C167.856 28.0484 165.523 21.5544 163.122 15.0605L161.819 15.4059L154.068 34.4732C152.764 37.7202 152.216 37.9965 149.815 38.342V39.3782H157.978V38.342C155.165 38.0656 154.891 37.6511 155.645 35.3713C156.126 33.9206 156.606 32.5389 157.223 30.8117H165.18C165.935 32.8843 166.621 34.7496 167.17 36.2003C167.65 37.6511 167.307 37.9965 165.043 38.342V39.3782H174.441ZM164.631 29.2228H157.84C158.938 26.2522 160.104 23.1434 161.339 20.1036H161.407L164.631 29.2228ZM178.076 15.6131V16.6494C180.82 16.7876 181.163 16.9948 181.163 20.2418V34.6805C181.163 37.7202 180.82 37.9965 177.871 38.2729V39.3782H188.229V38.342C184.867 38.0656 184.524 37.8584 184.524 34.8187V29.2919L187.268 29.9827C187.68 29.9827 188.434 29.9827 188.983 29.9136C192.619 29.4991 196.186 27.1503 196.186 22.3834C196.186 19.9655 195.225 18.2383 193.785 17.133C192.276 16.0967 190.149 15.6822 187.543 15.6822H178.076V15.6131ZM184.524 18.9292C184.524 17.8929 184.662 17.4784 184.936 17.2712C185.21 16.9948 185.965 16.7876 186.994 16.7876C189.944 16.7876 192.482 18.4456 192.482 22.4525C192.482 27.1503 189.532 28.3938 187.268 28.3938C186.102 28.3938 185.073 28.1174 184.593 27.9102V18.9292H184.524ZM210.248 39.3782V38.342C207.23 38.1347 206.956 37.8584 206.956 34.7496V20.3109C206.956 17.133 207.298 16.9257 210.248 16.7185V15.6131H200.096V16.7185C203.114 16.9257 203.457 17.133 203.457 20.3109V34.7496C203.457 37.9275 203.114 38.1347 200.096 38.342V39.3782H210.248ZM235.354 21.3472C235.217 19.1364 235.011 16.3731 235.011 14.6459H234.188C233.639 15.3368 233.297 15.544 232.268 15.544H217.245C216.147 15.544 215.667 15.544 215.118 14.6459H214.295C214.227 16.6494 214.021 19.0674 213.884 21.4162H214.981C215.461 19.6891 215.804 18.6529 216.285 17.962C216.765 17.2021 217.588 16.8567 220.812 16.8567H222.938V34.6805C222.938 37.582 222.595 37.9965 219.234 38.2038V39.3782H230.21V38.342C226.711 38.1347 226.368 37.7202 226.368 34.8187V16.9948H228.906C231.719 16.9948 232.405 17.2712 233.022 18.1002C233.502 18.7219 233.914 19.6891 234.257 21.5544L235.354 21.3472ZM260.186 39.3782V38.342C257.785 38.0656 257.237 37.7202 256.071 34.4732C253.601 28.0484 251.269 21.5544 248.868 15.0605L247.565 15.4059L239.813 34.4732C238.51 37.7202 237.961 37.9965 235.56 38.342V39.3782H243.723V38.342C240.911 38.0656 240.636 37.6511 241.391 35.3713C241.871 33.9206 242.351 32.5389 242.969 30.8117H250.926C251.68 32.8843 252.366 34.7496 252.915 36.2003C253.395 37.6511 253.052 37.9965 250.789 38.342V39.3782H260.186ZM250.377 29.2228H243.586C244.684 26.2522 245.85 23.1434 247.084 20.1036H247.153L250.377 29.2228ZM280.834 33.2988C280.216 35.0259 279.531 36.2694 278.845 36.9603C278.021 37.9275 276.718 38.1347 274.729 38.1347C273.288 38.1347 271.985 38.0656 271.299 37.6511C270.613 37.3057 270.407 36.5458 270.407 34.5423V20.3109C270.407 17.133 270.75 16.9257 273.7 16.7185V15.6131H263.685V16.7185C266.772 16.9257 266.977 17.133 266.977 20.3109V34.6805C266.977 37.8584 266.634 38.1347 263.479 38.342V39.3782H280.628C280.971 38.2729 281.794 34.7496 282 33.506L280.834 33.2988Z" fill="white"/>
<path fill-rule="evenodd" clip-rule="evenodd" d="M83.0703 0.345423L81.2868 2.00345L82.4529 4.83592L80.738 3.03972L79.0917 4.83592L80.2579 2.00345L78.4743 0.345423L80.8066 1.51986L83.0703 0.345423ZM80.738 0C80.4636 0 80.1892 0.276338 80.1892 0.552677C80.1892 0.829015 80.4636 1.10535 80.738 1.10535C81.0124 1.10535 81.2868 0.829015 81.2868 0.552677C81.2868 0.276338 81.081 0 80.738 0Z" fill="white"/>
<path fill-rule="evenodd" clip-rule="evenodd" d="M78.3371 0.34542L77.1024 2.48704L79.0231 4.83592L76.8966 3.5924L75.7991 5.8031L76.1421 2.76338L73.947 1.65803L76.485 2.07254L78.3371 0.34542ZM76.0735 0.690843C75.7991 0.759928 75.5933 1.10535 75.7305 1.38169C75.7991 1.65803 76.1421 1.86528 76.4164 1.72711C76.6908 1.65803 76.8966 1.3126 76.7594 1.03627C76.6908 0.759928 76.3478 0.621759 76.0735 0.690843Z" fill="white"/>
<path fill-rule="evenodd" clip-rule="evenodd" d="M73.8784 1.72712L73.3296 4.14508L75.8677 5.80311L73.4668 5.25043L73.1238 7.66839L72.5064 4.69775L70.1056 4.35233L72.6436 4.00691L73.8784 1.72712ZM71.7519 2.76339C71.4775 2.90155 71.4089 3.24698 71.6147 3.52332C71.7519 3.79965 72.0949 3.86874 72.3692 3.66149C72.6436 3.52332 72.7122 3.17789 72.5064 2.90155C72.3692 2.6943 72.0263 2.62522 71.7519 2.76339Z" fill="white"/>
<path fill-rule="evenodd" clip-rule="evenodd" d="M69.9684 4.42142L70.1742 6.83938L73.1238 7.66839L70.6543 7.87565L70.9973 10.2936L69.4882 7.59931L67.0873 7.94474L69.4196 6.83938L69.9684 4.42142ZM68.3221 6.01036C68.1163 6.21762 68.1849 6.63213 68.3907 6.7703C68.5964 6.97755 69.008 6.90846 69.1452 6.70121C69.351 6.49396 69.2824 6.07945 69.0766 5.94128C68.8708 5.80311 68.4593 5.80311 68.3221 6.01036Z" fill="white"/>
<path fill-rule="evenodd" clip-rule="evenodd" d="M67.0873 8.0829L67.9791 10.3627L70.9973 10.2936L68.7336 11.1917L69.7626 13.4024L67.5675 11.2608L65.3724 12.4352L67.2931 10.7081L67.0873 8.0829ZM65.9212 10.1554C65.784 10.4318 65.9212 10.7772 66.1956 10.8463C66.47 10.9845 66.8129 10.8463 66.8815 10.5699C67.0187 10.2936 66.8815 9.94818 66.6071 9.8791C66.3328 9.74093 66.0584 9.8791 65.9212 10.1554Z" fill="white"/>
<path fill-rule="evenodd" clip-rule="evenodd" d="M65.3724 12.5043L66.8815 14.4387L69.7626 13.4715L67.8419 14.9914L69.4882 16.7876L66.8129 15.4059L65.0294 17.0639L66.4014 14.8532L65.3724 12.5043ZM64.8236 14.7841C64.8236 15.0604 65.0294 15.3368 65.3038 15.4059C65.5782 15.4059 65.8526 15.1986 65.9212 14.9223C65.9212 14.6459 65.7154 14.3696 65.441 14.3005C65.1666 14.3005 64.8922 14.5078 64.8236 14.7841Z" fill="white"/>
<path fill-rule="evenodd" clip-rule="evenodd" d="M64.9608 17.2021L66.9501 18.5838L69.4196 16.8567L68.0477 18.9292L70.1742 20.1727L67.2245 19.62L65.9898 21.7617L66.6071 19.2055L64.9608 17.2021ZM65.1666 19.551C65.2352 19.8273 65.5096 20.0345 65.8526 19.9655C66.127 19.8964 66.3328 19.62 66.2642 19.2746C66.1956 18.9983 65.9212 18.791 65.5782 18.8601C65.3038 18.9292 65.098 19.2055 65.1666 19.551Z" fill="white"/>
<path fill-rule="evenodd" clip-rule="evenodd" d="M65.9898 21.8307L68.3221 22.5907L70.1742 20.1727L69.4882 22.5216L71.8205 23.0743L68.8022 23.4888L68.2535 25.9067L68.1163 23.2815L65.9898 21.8307ZM66.8815 23.9724C67.0187 24.2487 67.3617 24.3178 67.6361 24.1796C67.9105 24.0415 67.9791 23.696 67.8419 23.4197C67.7047 23.1434 67.3617 23.0743 67.0873 23.2124C66.8129 23.4197 66.7443 23.696 66.8815 23.9724Z" fill="white"/>
<path fill-rule="evenodd" clip-rule="evenodd" d="M68.3221 25.9067H70.7915L71.8891 23.0743V25.5613L74.29 25.4231L71.5461 26.6667L71.6833 29.1537L70.7915 26.6667L68.3221 25.9067ZM69.7626 27.772C69.9684 27.9793 70.3114 27.9793 70.5171 27.772C70.7229 27.5648 70.7229 27.2193 70.5171 27.0121C70.3114 26.8048 69.9684 26.8048 69.7626 27.0121C69.5568 27.1503 69.5568 27.4957 69.7626 27.772Z" fill="white"/>
<path fill-rule="evenodd" clip-rule="evenodd" d="M71.7519 29.1537L74.0842 28.4629L74.29 25.4231L74.9759 27.772L77.2396 26.943L74.9759 28.9465L75.8677 31.2262L74.29 29.1537H71.7519ZM73.6726 30.4663C73.947 30.6045 74.29 30.4663 74.4271 30.19C74.5643 29.9136 74.4271 29.5682 74.1528 29.43C73.8784 29.2919 73.5354 29.43 73.3982 29.7064C73.261 29.9827 73.3982 30.3281 73.6726 30.4663Z" fill="white"/>
<path fill-rule="evenodd" clip-rule="evenodd" d="M87.5977 1.72711L85.4026 2.76338L85.677 5.8031L84.5794 3.5924L82.4529 4.83592L84.3736 2.48704L83.1389 0.34542L84.991 2.14162L87.5977 1.72711ZM85.4712 0.690843C85.1968 0.621759 84.8538 0.759928 84.7852 1.03627C84.7166 1.3126 84.8538 1.65803 85.1282 1.72711C85.4026 1.7962 85.7456 1.65803 85.8142 1.38169C85.9513 1.10535 85.7456 0.829012 85.4712 0.690843Z" fill="white"/>
<path fill-rule="evenodd" clip-rule="evenodd" d="M91.5077 4.35233L89.1068 4.69775L88.4894 7.66839L88.0778 5.25043L85.677 5.8031L88.215 4.14508L87.6663 1.72712L88.901 4.00691L91.5077 4.35233ZM89.7242 2.76339C89.4498 2.62522 89.1068 2.62522 88.9696 2.90155C88.8324 3.17789 88.8324 3.52332 89.1068 3.66149C89.3812 3.79965 89.7242 3.79965 89.8614 3.52332C90.0671 3.31606 89.9985 2.97064 89.7242 2.76339Z" fill="white"/>
<path fill-rule="evenodd" clip-rule="evenodd" d="M94.3887 8.01382L91.9879 7.6684L90.5473 10.3627L90.8903 7.94473L88.4894 7.73748L91.3705 6.83938L91.5763 4.42142L92.125 6.97755L94.3887 8.01382ZM93.2226 6.01036C93.0168 5.80311 92.6738 5.73403 92.468 5.94128C92.2622 6.14853 92.1936 6.49396 92.3994 6.70121C92.6052 6.90846 92.9482 6.97755 93.154 6.7703C93.3598 6.63213 93.4284 6.2867 93.2226 6.01036Z" fill="white"/>
<path fill-rule="evenodd" clip-rule="evenodd" d="M96.1722 12.5043L93.9771 11.468L91.7821 13.6097L92.811 11.399L90.5473 10.5009L93.5656 10.5699L94.4573 8.29015L94.1829 10.9154L96.1722 12.5043ZM95.6234 10.2245C95.4862 9.94818 95.2119 9.81002 94.9375 9.8791C94.6631 10.0173 94.5259 10.2936 94.5945 10.5699C94.7317 10.8463 95.0061 10.9845 95.2805 10.9154C95.6234 10.8463 95.7606 10.5009 95.6234 10.2245Z" fill="white"/>
<path fill-rule="evenodd" clip-rule="evenodd" d="M96.5152 17.2712L94.7317 15.6131L91.9878 16.9948L93.6342 15.1986L91.7135 13.6788L94.5945 14.6459L96.1036 12.7116L95.0747 15.1295L96.5152 17.2712ZM96.721 14.9914C96.721 14.715 96.4466 14.4387 96.1036 14.5078C95.8292 14.5078 95.5548 14.7841 95.6234 15.1295C95.6234 15.4059 95.8978 15.6822 96.2408 15.6131C96.5152 15.544 96.721 15.2677 96.721 14.9914Z" fill="white"/>
<path fill-rule="evenodd" clip-rule="evenodd" d="M95.4863 21.9689L94.2515 19.8273L91.2333 20.3109L93.3598 19.0674L91.9878 16.9948L94.4573 18.791L96.5152 17.4093L94.8689 19.4128L95.4863 21.9689ZM96.3094 19.7582C96.378 19.4819 96.1722 19.1364 95.8978 19.0674C95.6235 18.9983 95.2805 19.2055 95.2119 19.4819C95.1433 19.7582 95.3491 20.1036 95.6235 20.1727C95.9664 20.2418 96.2408 20.0345 96.3094 19.7582Z" fill="white"/>
<path fill-rule="evenodd" clip-rule="evenodd" d="M93.0854 26.0449L92.5366 23.6269L89.5184 23.2124L91.9192 22.6598L91.2333 20.3109L93.0854 22.7288L95.4177 22.038L93.2226 23.4197L93.0854 26.0449ZM94.5259 24.1796C94.6631 23.9033 94.5945 23.5579 94.3201 23.4197C94.0457 23.2815 93.7027 23.3506 93.5656 23.6269C93.4284 23.9033 93.497 24.2487 93.7713 24.3869C94.0457 24.525 94.3887 24.456 94.5259 24.1796Z" fill="white"/>
<path fill-rule="evenodd" clip-rule="evenodd" d="M89.6556 29.2228L89.8614 26.8048L87.1175 25.4922L89.587 25.6304V23.2124L90.6159 26.0449L93.0854 26.0449L90.6159 26.7358L89.6556 29.2228ZM91.5763 27.9102C91.7821 27.7029 91.7821 27.3575 91.5763 27.1503C91.3705 26.943 91.0275 26.943 90.8217 27.1503C90.6159 27.3575 90.6159 27.7029 90.8217 27.9102C91.0275 28.1174 91.3705 28.1174 91.5763 27.9102Z" fill="white"/>
<path fill-rule="evenodd" clip-rule="evenodd" d="M85.4026 31.2953L86.2943 29.0155L84.0306 26.943L86.2943 27.8411L87.0489 25.4922L87.2547 28.5319L89.587 29.2919L86.9803 29.2228L85.4026 31.2953ZM87.6663 30.6045C87.9407 30.4663 88.0778 30.1209 87.9407 29.8446C87.8035 29.5682 87.4605 29.43 87.1861 29.5682C86.9117 29.7064 86.7745 30.0518 86.9117 30.3281C87.0489 30.6045 87.3919 30.7427 87.6663 30.6045Z" fill="white"/>
</svg>
