<svg width="79" height="53" viewBox="0 0 79 53" fill="none" xmlns="http://www.w3.org/2000/svg">
<path d="M39.467 0.48883C39.4856 0.213688 39.7142 0 39.9899 0C40.2739 0 40.5062 0.226059 40.5139 0.509869L40.9191 15.3943C41.0633 20.6888 45.3107 24.9527 50.6047 25.1173L78.5002 25.9845C78.7787 25.9931 79 26.2214 79 26.5C79 26.7786 78.7787 27.0069 78.5002 27.0155L50.4165 27.8886C45.2 28.0507 40.9854 32.1974 40.7384 37.4106L40.0237 52.5006C40.0104 52.7801 39.7799 53 39.5 53C39.2201 53 38.9896 52.7801 38.9763 52.5006L38.2616 37.4106C38.0146 32.1974 33.8 28.0507 28.5835 27.8886L0.499759 27.0155C0.221273 27.0069 0 26.7786 0 26.5C0 26.2214 0.221273 25.9931 0.499759 25.9845L28.7679 25.1057C33.9074 24.9459 38.0881 20.9144 38.4344 15.7841L39.467 0.48883Z" fill="white"/>
</svg>
